<svg width="24" height="24" fill="none" xmlns="http://www.w3.org/2000/svg"><path d="M21.533 5.981c.015.263.015.525.015.788C21.548 14.775 16.6 24 7.553 24 4.767 24 2.178 23.006 0 21.281c.396.056.777.075 1.188.075 2.3 0 4.416-.956 6.106-2.587-2.162-.056-3.974-1.8-4.599-4.2.305.056.61.093.93.093a4.29 4.29 0 001.294-.206c-2.254-.562-3.944-3-3.944-5.944v-.074c.654.45 1.416.73 2.223.768C1.873 8.12 1.005 6.262 1.005 4.162c0-1.125.244-2.156.67-3.056 2.421 3.675 6.061 6.075 10.142 6.338a8.363 8.363 0 01-.122-1.388C11.695 2.72 13.888 0 16.615 0c1.416 0 2.695.731 3.593 1.912A8.668 8.668 0 0023.33.45c-.366 1.406-1.142 2.588-2.162 3.337.99-.13 1.949-.468 2.832-.937-.67 1.2-1.508 2.269-2.467 3.131z" fill="#fff"/></svg>