<svg xmlns="http://www.w3.org/2000/svg" version="1.1" xmlns:xlink="http://www.w3.org/1999/xlink" width="35" height="35"><svg width="35" height="35" fill="none" xmlns="http://www.w3.org/2000/svg"><path d="M35 17.397c0 9.608-7.835 17.396-17.5 17.396S0 27.005 0 17.397 7.835 0 17.5 0 35 7.789 35 17.397z" fill="#fff"></path><path d="M28.921 28.619l-2.072-1.24-2.395-1.238-1.658-.642-1.52-.597s-.583-.162-.69-.413c-.108-.25-.077-.3-.185-.55-.108-.251-.184-1.193-.184-1.193s-.041-.534 0-.872c.05-.406.029-1.845.092-2.248.09-.567.276-.918.276-.918l.691-.505.737-.826.783-1.055s.574-.565.66-1.13c.032-.213.061-.613.061-.613s.014-.535.2-.643c.109-.063.105-.038.23-.046.145-.008.095-.005.23.046.23.087.323.582.323.582s.042.263.061.428c.017.143 0 .286 0 .43 0 .143.01.162 0 .306-.015.253-.122.354-.122.55 0 .048-.03.156.122.246.542.319 1.597-.66 1.597-.66s.347-.243.552-.505c.204-.26.461-.78.461-.78s.305-.624.369-1.056c.05-.336.06-.536 0-.871-.07-.38-.369-.918-.369-.918v-.734s.493-.349.737-.643c.287-.346.344-.61.552-1.009.186-.355.371-.523.461-.918l.23-1.009s-.023-.588 0-.964c.031-.505.184-1.284.184-1.284V4.3s-.054-.969-.414-1.423c-.214-.27-.389-.383-.69-.55-.379-.21-.632-.26-1.06-.321-.392-.056-.525-.046-.921-.046-.198 0-.402.021-.599.046-.361.044-.533.196-.875.32-.197.073-.506.184-.506.184h-.921c-.36 0-.921.367-.921.367h-3.5l-.691-.367s-.38-.224-.645-.32c-.311-.114-.829-.184-.829-.184s-.092-.046-.414 0c-.67.095-1.02.278-1.658.504-.548.194-.832.363-1.382.551-.479.164-.787.149-1.243.367-.522.25-.686.6-1.198.872a8.203 8.203 0 01-.736.321H6.63s-.545-.256-.92-.321c-.39-.067-.631-.102-1.014 0-.405.108-.664.22-.92.55-.158.203-.214.348-.277.597-.11.436-.01.71.092 1.147.092.392.161.618.369.964.222.37.736.825.736.825l1.612.505 1.612.642s.834.151 1.197.505c.1.098.23.276.23.276.164.299 0 .871 0 .871s-.164.73 0 1.147c.096.24.243.325.37.55.222.403.275.664.414 1.102.222.7.26 1.117.414 1.835.131.608.148.654.2 1.273.035.429.034.968.122 1.389.071.338.125.553.246.878.113.303.353.727.353.727l.415.643.552.596-.092.117.092 1.214s.059.37 0 .596c-.068.265-.191.388-.368.597-.274.323-.875.642-.875.642l-1.29.78-1.473.872-2.119 1.239-1.151.642-.983.707c7 7.78 18.299 8.657 25.974.735l-1.228-.845z" fill="#53407E"></path><path d="M20.146 22.09l.34-1.11s.096-.932.193-1.331c.097-.4.243-1.066.243-1.066s.63-.267.92-.532c.384-.35.42-.34.693-.777.17-.271.363-.55.43-.857.093-.425.25-.735.184-1.164-.06-.392.014-.65-.29-.932-.154-.144-.268-.226-.484-.266-.334-.063-.238-.065-.577-.027-.188.02-.687.428-.876.428-.227 0-.21.031-.413-.06-.297-.135-.248-.638-.369-.92-.103-.24-.073-.277-.236-.487-.133-.17-.308-.182-.436-.355-.197-.264-.102-.49-.194-.799-.11-.37-.34-.932-.34-.932s-.166-.452-.387-.666c-.187-.182-.337-.243-.581-.355-.88-.403-1.08-.279-1.817-.204-.737.076-1.87.57-2.641.559-.498-.007-.764-.144-1.26-.178-.453-.03-.731-.128-1.163 0-.315.094-.61.116-.727.4-.067.162.032.273 0 .444-.042.222-.182.314-.242.533-.103.37 0 .595 0 .976V14.632c0 .26-.01.406 0 .666.024.733.108 1.142.242 1.865.08.435.113.684.242 1.11.146.48.173.79.33 1.268.14.427.276.674.552 1.041.137.181.19.218.33.399.122.158.164.263.242.443.108.25.194.666.194.666l.217.33s.52.376 1.043.558c.313.11.497.15.823.222.43.095.675.144 1.115.178.415.032.65.026 1.066 0a7.678 7.678 0 001.26-.178c.6-.125.972-.156 1.502-.444.381-.207.872-.666.872-.666z" fill="#D0BC90" stroke="#D0BC90"></path></svg><style>@media (prefers-color-scheme: light) { :root { filter: none; } }
@media (prefers-color-scheme: dark) { :root { filter: none; } }
</style></svg>