<svg width="211" height="147" fill="none" xmlns="http://www.w3.org/2000/svg"><path d="M31.781 140.07l-7.162-7.785-6.185-7.137-8.464-11.353-3.581-5.515 12.045-13.948 6.185-8.11 6.186-8.758s3.35-5.305 5.86-8.434c1.91-2.383 3.255-3.49 5.208-5.839 1.444-1.737 2.056-2.874 3.581-4.541.969-1.06 1.49-1.69 2.604-2.596 1.066-.866 1.723-1.29 2.93-1.946 1.1-.597 1.762-.847 2.93-1.297 1.125-.434 1.804-.544 2.93-.974 1.7-.648 4.232-1.946 4.232-1.946l-13.022.973s-4.343.814-7.162.974c-2.03.114-5.208 0-5.208 0s-7.744.242-12.697 0c-4.207-.206-10.743-.974-10.743-.974s-4.199-.411-6.836-.973c-1.93-.41-4.883-1.297-4.883-1.297l.976-12.976 1.303-15.57 1.627-13.3V3.18s3.376-.098 5.535 0c3.324.15 5.168.514 8.464.973 2.422.337 6.185.973 6.185.973s10.55.7 17.254 1.622c6.398.88 16.277 2.92 16.277 2.92l10.418 2.595 7.813 2.27 8.138 3.244s2.953 1.098 4.558 2.27c1.45 1.06 3.255 3.245 3.255 3.245l.977.973s.919-.758 1.628-.973c.851-.259 1.39-.047 2.279 0 2.864.15 4.302 1.4 7.162 1.622 1.521.117 2.399-.237 3.906 0 1.311.205 3.256.973 3.256.973s3.048-2.923 5.208-4.542c3.19-2.389 5.231-3.393 8.79-5.19 2.487-1.256 3.892-1.966 6.511-2.92 4.055-1.476 10.743-2.594 10.743-2.594l14.975-3.244 14.324-2.595 13.347-1.622 11.069-1.622 6.185-.973V8.37l1.303 7.785 1.302 11.03 1.302 22.382s0 .324-2.604 1.297c-2.605.974-43.298 0-43.298 0s-1.221.974 0 1.947c1.221.973 3.255 2.27 3.255 2.27s2.688 1.425 4.233 2.595c1.075.816 1.616 1.352 2.604 2.271 1.051.978 2.604 2.595 2.604 2.595l3.581 3.568 6.511 7.786 5.534 7.46 7.488 10.056 6.185 8.11 6.837 8.758-10.743 16.22-13.673 21.085s-3.471-2.861-5.534-4.866c-2.578-2.505-6.186-6.812-6.186-6.812l-10.743-12.976-7.487-9.407-8.139-11.029-7.813-10.705-5.86-10.055-3.906-5.84-3.907-7.785-2.279-4.865-2.93-6.164s-1.004-1.375-1.627-2.27c-.784-1.127-.917-2.02-1.954-2.92-.772-.67-.325-.649-2.278-1.297-1.954-.65-5.376.358-8.79 0-2.703-.284-4.125-1.115-6.837-1.298-1.522-.103-2.38 0-3.906 0h-1.628l-.977 2.595-1.953 8.759-2.93 7.46-3.58 5.84-4.233 7.785-4.883 6.487-4.883 8.11-5.209 6.163-4.883 5.515-7.162 7.785s-2.704 3.618-4.558 5.839c-2.072 2.484-5.534 6.163-5.534 6.163s-2.283 4.015-3.906 6.488c-1.1 1.676-1.612 2.705-2.93 4.217-1.358 1.556-3.907 3.568-3.907 3.568z" fill="#E2C2D2" stroke="#E2C2D2"/></svg>